<?xml version="1.0" encoding="utf-8"?>
<svg version="1.1" xmlns="http://www.w3.org/2000/svg" xmlns:xlink="http://www.w3.org/1999/xlink" height="24" width="24.6856689453125">
  <defs>
    <path id="path-0" opacity="1" fill-rule="evenodd" d="M7.7142333984375,0 L16.971435546875,0 C21.231201171875,0 24.6856689453125,3.3583984375 24.6856689453125,7.5 L24.6856689453125,16.5 C24.6856689453125,20.6416015625 21.231201171875,24 16.971435546875,24 L7.7142333984375,24 C3.4544677734375,24 0,20.6416015625 0,16.5 L0,7.5 C0,3.3583984375 3.4544677734375,0 7.7142333984375,0 L7.7142333984375,0ZM16.971435546875,21.75 C19.94921875,21.75 22.3714599609375,19.39501953125 22.3714599609375,16.5 L22.3714599609375,7.5 C22.3714599609375,4.60498046875 19.94921875,2.25 16.971435546875,2.25 L7.71435546875,2.25 C4.736572265625,2.25 2.3143310546875,4.60498046875 2.3143310546875,7.5 L2.3143310546875,16.5 C2.3143310546875,19.39501953125 4.736572265625,21.75 7.71435546875,21.75 L16.971435546875,21.75 L16.971435546875,21.75Z"/>
    <path id="path-1" opacity="1" fill-rule="evenodd" d="M6.17138671875,12 C6.17138671875,8.6865234375 8.9346923828125,6 12.3427734375,6 C15.7509765625,6 18.5142822265625,8.6865234375 18.5142822265625,12 C18.5142822265625,15.3134765625 15.7509765625,18 12.3427734375,18 C8.9346923828125,18 6.17138671875,15.3134765625 6.17138671875,12 L6.17138671875,12ZM8.4857177734375,12 C8.4857177734375,14.06689453125 10.216796875,15.75 12.3428955078125,15.75 C14.4688720703125,15.75 16.199951171875,14.06689453125 16.199951171875,12 C16.199951171875,9.931640625 14.4688720703125,8.25 12.3428955078125,8.25 C10.216796875,8.25 8.4857177734375,9.931640625 8.4857177734375,12 L8.4857177734375,12Z"/>
    <ellipse id="ellipse-2" opacity="1" rx="0.8223428571428713" ry="0.7995000000000347" cx="18.977142857142667" cy="5.550000000000137"/>
  </defs>
  <g opacity="1">
    <g opacity="1">
      <use xlink:href="#path-0" fill="rgb(0,0,0)" fill-opacity="1"/>
    </g>
    <g opacity="1">
      <use xlink:href="#path-1" fill="rgb(0,0,0)" fill-opacity="1"/>
    </g>
    <g opacity="1">
      <use xlink:href="#ellipse-2" fill="rgb(0,0,0)" fill-opacity="1"/>
    </g>
  </g>
</svg>