<?xml version="1.0" encoding="utf-8"?>
<svg version="1.1" xmlns="http://www.w3.org/2000/svg" xmlns:xlink="http://www.w3.org/1999/xlink" height="24" width="25.1162109375">
  <defs>
    <path id="path-0" opacity="1" fill-rule="evenodd" d="M3.047119140625,0 C1.2049560546875,0 0,1.20849609375 0,2.79736328125 C0,4.3515625 1.1700439453125,5.5966796875 2.9757080078125,5.5966796875 L3.01171875,5.5966796875 C4.8895263671875,5.5966796875 6.057373046875,4.35205078125 6.057373046875,2.79736328125 C6.0220947265625,1.20849609375 4.8895263671875,0 3.047119140625,0 L3.047119140625,0ZM25.1162109375,14.71435546875 L25.1162109375,24 L19.7330322265625,24 L19.7330322265625,15.33642578125 C19.7330322265625,13.16015625 18.954345703125,11.6748046875 17.005859375,11.6748046875 C15.5184326171875,11.6748046875 14.6331787109375,12.67578125 14.2437744140625,13.64404296875 C14.101806640625,13.990234375 14.065185546875,14.4716796875 14.065185546875,14.95654296875 L14.065185546875,24 L8.68017578125,24 C8.68017578125,24 8.752685546875,9.32666015625 8.68017578125,7.80615234375 L14.064697265625,7.80615234375 C14.064697265625,7.80615234375 14.03955078125,10.13720703125 14.029296875,10.15380859375 L14.064697265625,10.1015625 C14.780029296875,9 16.0576171875,7.42578125 18.9173583984375,7.42578125 C22.460205078125,7.42578125 25.1162109375,9.740234375 25.1162109375,14.71435546875 L25.1162109375,14.71435546875ZM5.7027587890625,24 L0.31982421875,24 L0.31982421875,7.80615234375 L5.7027587890625,7.80615234375 L5.7027587890625,24 L5.7027587890625,24Z"/>
  </defs>
  <g opacity="1">
    <g opacity="1">
      <use xlink:href="#path-0" fill="rgb(0,0,0)" fill-opacity="1"/>
    </g>
  </g>
</svg>