<?xml version="1.0" encoding="utf-8"?>
<svg version="1.1" xmlns="http://www.w3.org/2000/svg" xmlns:xlink="http://www.w3.org/1999/xlink" height="28.704630109477876" width="38.80704710166583">
  <defs>
    <path id="path-0" opacity="1" fill-rule="evenodd" d="M27.281270132864165,2.3523150547389378 C31.621846304739165,2.3523150547389378 33.894551382864165,2.9489947422389378 35.125508414114165,4.412373648488938 C36.362324820364165,5.882588492238938 36.454732046926665,8.133565054738938 36.454732046926665,11.400166617238938 L36.454732046926665,17.304463492238938 C36.454732046926665,21.047627554738938 35.864400015676665,23.209736929738938 34.480610953176665,24.534443960988938 C33.131245718801665,25.825459585988938 31.045430289114165,26.352315054738938 27.281392203176665,26.352315054738938 L11.525410757864165,26.352315054738938 C3.771016226614165,26.352315054738938 2.352315054739165,23.305440054738938 2.352315054739165,17.304463492238938 L2.352315054739165,11.400166617238938 C2.352315054739165,8.302998648488938 2.352315054739165,6.064717398488938 3.547993765676665,4.545674429738938 C4.774312125051665,2.9875689609889378 7.085591421926665,2.3523150547389378 11.525410757864165,2.3523150547389378 L27.281270132864165,2.3523150547389378 L27.281270132864165,2.3523150547389378ZM17.091450796926665,18.907002554738938 L24.246113882864165,15.167744742238938 C24.609639273489165,14.977803335988938 24.837178335989165,14.601338492238938 24.836812125051665,14.191182242238938 C24.836201773489165,13.781025992238938 24.607686148489165,13.405049429738938 24.243672476614165,13.216084585988938 L17.088887320364165,9.501240835988938 C16.748067007864165,9.323994742238938 16.339375601614165,9.337666617238938 16.010762320364165,9.537373648488938 C15.682271109426665,9.736592398488938 15.481831656301665,10.093037710988938 15.481831656301665,10.477315054738938 L15.481831656301665,17.931904898488938 C15.481831656301665,18.316670523488938 15.682759390676665,18.673604117238938 16.011983023489165,18.872822867238938 C16.186787710989165,18.978779898488938 16.384175406301665,19.032002554738938 16.581929312551665,19.032002554738938 C16.756611929739165,19.032002554738938 16.931538687551665,18.990498648488938 17.091450796926665,18.907002554738938 L17.091450796926665,18.907002554738938Z"/>
  </defs>
  <g opacity="1">
    <g opacity="1">
      <use xlink:href="#path-0" fill="rgb(0,0,0)" fill-opacity="1"/>
    </g>
  </g>
</svg>